<?xml version="1.0" standalone="no"?>
<!DOCTYPE svg PUBLIC "-//W3C//DTD SVG 20010904//EN"
 "http://www.w3.org/TR/2001/REC-SVG-20010904/DTD/svg10.dtd">
<svg version="1.0" xmlns="http://www.w3.org/2000/svg"
 width="893.000000pt" height="893.000000pt" viewBox="0 0 893.000000 893.000000"
 preserveAspectRatio="xMidYMid meet">
<metadata>
Created by potrace 1.11, written by Peter Selinger 2001-2013
</metadata>
<g transform="translate(0.000000,893.000000) scale(0.100000,-0.100000)"
fill="#000000" stroke="none">
<path d="M5273 8493 c3 -10 15 -49 27 -88 34 -111 41 -152 41 -275 1 -74 -5
-140 -15 -184 -17 -73 -77 -209 -119 -270 -43 -64 -208 -236 -225 -236 -17 0
-65 64 -97 128 -19 38 -45 149 -48 202 -1 23 -7 35 -17 35 -41 0 -273 -355
-364 -558 -44 -98 -104 -288 -116 -372 -18 -113 -18 -268 -1 -289 8 -9 9 -16
3 -16 -10 0 -2 -33 19 -85 5 -11 16 -40 24 -64 17 -48 68 -130 109 -173 14
-15 26 -32 26 -38 0 -5 3 -10 8 -10 4 0 21 -11 37 -25 52 -42 67 -52 156 -96
150 -75 337 -111 549 -105 148 3 187 8 314 35 152 33 310 101 391 168 135 113
240 321 269 532 14 101 12 275 -4 315 -5 15 -6 25 -2 22 12 -7 -47 227 -80
319 -79 214 -237 497 -351 625 -8 8 -37 45 -65 81 -59 76 -247 268 -347 354
-39 33 -76 66 -83 72 -20 19 -45 16 -39 -4z"/>
<path d="M8109 7798 c-5 -18 -10 -54 -15 -103 -6 -66 -38 -196 -56 -229 -7
-12 -13 -29 -15 -39 -5 -30 -61 -134 -88 -163 -14 -15 -25 -30 -25 -33 0 -15
-161 -165 -178 -166 -4 -1 -26 -13 -49 -28 -24 -15 -45 -27 -48 -27 -2 0 -28
-11 -57 -24 -55 -24 -91 -38 -96 -36 -1 0 -15 -6 -32 -15 -34 -17 -34 -17 -52
55 -18 68 -15 181 7 256 26 90 11 103 -59 54 -24 -16 -46 -26 -50 -23 -3 4 -6
2 -6 -4 0 -6 -10 -13 -23 -17 -13 -3 -54 -28 -91 -56 -37 -27 -70 -50 -74 -50
-6 0 -21 -12 -93 -73 -14 -12 -38 -31 -53 -42 -46 -33 -208 -197 -251 -253
-21 -29 -43 -52 -47 -52 -4 0 -8 -6 -8 -14 0 -7 -9 -24 -19 -38 -18 -23 -103
-175 -101 -180 1 -2 -4 -16 -10 -32 -6 -16 -12 -38 -15 -50 -2 -11 -4 -21 -5
-21 -5 0 -11 -62 -15 -150 -2 -69 1 -118 12 -160 8 -33 16 -64 17 -70 2 -5 10
-27 19 -49 9 -21 17 -42 17 -47 0 -5 4 -9 9 -9 5 0 13 -10 17 -22 7 -24 6 -22
66 -93 52 -60 82 -89 128 -124 19 -14 44 -34 55 -44 11 -11 47 -32 79 -49 33
-16 66 -36 73 -44 8 -8 22 -14 32 -14 10 0 28 -9 41 -20 13 -11 29 -20 36 -20
7 0 34 -9 60 -20 26 -11 56 -22 68 -25 12 -2 21 -4 21 -5 0 -1 7 -3 15 -5 8
-2 25 -6 38 -9 12 -3 31 -8 43 -11 11 -2 30 -7 41 -11 11 -3 30 -7 41 -9 12
-1 50 -8 85 -14 83 -16 236 -16 292 -1 25 7 54 14 65 16 40 8 184 85 226 122
51 44 139 132 139 138 0 6 18 28 42 52 40 41 137 251 153 332 2 8 4 15 5 15 1
0 3 11 6 24 2 14 8 29 13 35 4 6 7 23 6 39 -1 15 1 27 5 27 4 0 6 10 5 23 -1
12 0 27 4 32 3 6 6 19 7 30 1 11 5 47 9 80 10 76 12 345 4 365 -4 8 -10 51
-14 95 -3 43 -9 83 -12 88 -2 4 -6 26 -8 48 -2 22 -8 46 -14 53 -6 7 -8 15 -5
18 3 4 -1 29 -10 57 -8 28 -12 51 -9 51 3 0 1 6 -5 13 -6 6 -14 30 -18 52 -4
22 -14 56 -22 75 -9 19 -16 37 -17 40 -1 3 -5 19 -10 35 -4 17 -12 36 -18 43
-5 6 -6 12 -2 12 4 0 3 6 -3 13 -5 6 -13 27 -17 45 -3 17 -11 32 -16 32 -5 0
-9 7 -9 16 0 15 -25 76 -53 129 -6 11 -24 47 -40 80 -17 33 -38 67 -48 76 -10
9 -16 19 -12 23 3 3 3 6 0 6 -4 0 -7 -1 -8 -2z"/>
<path d="M2448 7035 c-2 -1 -50 -5 -108 -9 -132 -7 -375 -41 -439 -60 -9 -3
-32 -8 -51 -11 -19 -3 -76 -17 -126 -30 -51 -14 -101 -25 -113 -25 -11 0 -21
-4 -21 -9 0 -5 -2 -15 -5 -23 -4 -9 5 -14 30 -15 40 -2 147 -35 215 -67 78
-36 153 -84 228 -148 67 -57 77 -69 73 -91 -1 -5 2 -6 7 -3 9 5 21 -7 58 -60
28 -39 96 -174 88 -174 -3 0 1 -11 10 -24 17 -27 54 -181 62 -261 3 -27 7 -56
9 -62 3 -9 -8 -13 -33 -14 -122 -3 -209 13 -285 53 -23 12 -44 23 -47 23 -3 1
-17 7 -33 15 -15 7 -30 10 -33 7 -10 -10 65 -239 111 -342 61 -134 90 -195
126 -257 23 -40 51 -91 63 -113 11 -21 28 -46 36 -55 8 -9 26 -31 40 -50 122
-164 292 -312 420 -364 25 -10 54 -22 65 -27 58 -23 148 -41 210 -42 103 -1
165 5 165 15 0 5 5 6 10 3 29 -18 256 89 337 160 147 128 239 232 327 370 102
160 189 364 221 518 22 99 19 226 -6 316 -22 80 -87 224 -117 257 -9 10 -30
38 -45 61 -25 37 -56 68 -182 183 -16 15 -68 51 -115 80 -74 45 -110 64 -215
110 -77 33 -179 70 -240 85 -16 5 -34 9 -40 11 -31 9 -241 46 -314 54 -81 10
-336 21 -343 15z"/>
<path d="M4835 5904 c-258 -39 -432 -109 -607 -245 -101 -77 -266 -254 -325
-347 -10 -15 -20 -29 -23 -32 -13 -11 -91 -142 -152 -255 -160 -293 -327 -761
-403 -1125 -15 -69 -39 -188 -55 -265 -73 -352 -121 -854 -121 -1270 0 -541
62 -975 191 -1330 37 -102 139 -293 183 -341 7 -7 25 -29 41 -49 35 -43 125
-114 181 -142 44 -22 175 -59 263 -74 31 -5 117 -9 191 -9 183 0 329 33 580
129 66 25 270 137 371 204 67 44 297 213 310 227 3 3 32 28 65 55 33 28 62 52
65 55 3 3 45 41 94 85 49 44 108 98 131 120 23 22 116 111 206 197 90 86 205
197 256 245 122 118 178 169 238 218 95 76 126 97 203 132 75 35 105 45 247
83 70 19 287 54 400 65 137 13 164 16 255 31 248 40 401 81 529 141 102 48
224 125 292 184 53 46 199 209 199 222 0 3 13 25 29 49 107 159 249 549 256
703 8 177 -75 382 -249 615 -101 135 -415 446 -507 502 -15 9 -30 21 -33 27
-19 31 -383 283 -581 403 -175 105 -619 338 -646 338 -5 0 -20 7 -33 15 -26
17 -403 176 -426 179 -8 1 -22 5 -30 9 -37 16 -297 98 -415 131 -419 116 -884
164 -1170 120z"/>
<path d="M1450 4759 c0 -4 -17 -6 -37 -4 -21 1 -44 -2 -50 -7 -8 -6 -13 -6
-13 -1 0 5 -11 9 -25 9 -14 0 -25 -4 -25 -8 0 -4 -10 -7 -22 -7 -36 1 -116 -8
-127 -16 -6 -3 -11 0 -11 7 0 10 -2 10 -8 1 -5 -7 -30 -15 -56 -19 -26 -3 -58
-9 -71 -14 -13 -5 -26 -6 -29 -3 -3 3 -11 1 -18 -4 -7 -6 -20 -11 -28 -11 -24
-2 -65 -9 -65 -12 0 -1 -13 -4 -30 -6 -16 -2 -40 -9 -52 -16 -12 -6 -29 -8
-38 -4 -9 3 -14 2 -11 -3 5 -8 -13 -13 -84 -27 -8 -2 -16 -7 -18 -12 -2 -6
-12 -8 -22 -5 -11 3 -20 1 -20 -5 0 -6 -9 -9 -20 -7 -11 2 -20 -1 -20 -6 0 -5
-8 -9 -18 -7 -9 2 -16 -2 -15 -9 1 -6 -5 -10 -15 -8 -9 1 -23 -3 -31 -9 -12
-9 -13 -8 -7 4 6 12 4 11 -6 -1 -7 -9 -19 -14 -25 -12 -7 3 -13 -1 -13 -8 0
-7 -3 -10 -6 -6 -4 3 -19 0 -35 -9 -16 -8 -29 -11 -29 -7 0 4 -5 2 -12 -5 -7
-7 -20 -12 -30 -12 -10 0 -18 -4 -18 -9 0 -5 -16 -12 -35 -15 -24 -5 -33 -11
-29 -19 4 -7 4 -9 0 -5 -10 8 -66 -11 -66 -23 0 -4 -6 -6 -14 -3 -8 3 -17 0
-21 -5 -3 -6 -10 -9 -15 -6 -4 3 -13 -2 -20 -10 -6 -7 -18 -11 -26 -8 -8 3
-14 2 -13 -3 3 -20 -2 -26 -14 -15 -10 8 -14 7 -14 -2 0 -9 19 -12 64 -11 40
0 63 -3 63 -10 0 -6 5 -4 10 4 5 8 10 10 10 4 0 -6 12 -12 28 -12 39 -2 60 -7
68 -15 4 -4 22 -7 40 -7 18 0 36 -4 39 -10 3 -5 15 -10 26 -10 10 0 19 -5 19
-11 0 -5 4 -8 8 -5 5 3 19 -1 33 -8 13 -7 30 -11 37 -8 6 2 12 -2 12 -9 0 -7
3 -9 6 -6 4 4 19 -2 34 -13 16 -11 33 -20 39 -20 13 0 94 -51 99 -62 2 -5 9
-8 17 -8 7 0 18 -7 25 -15 7 -8 17 -12 23 -8 5 3 8 2 5 -3 -7 -11 47 -66 56
-57 3 4 6 -2 6 -12 0 -10 3 -16 6 -12 3 3 20 -11 37 -30 18 -20 42 -46 53 -59
12 -13 24 -26 26 -31 14 -32 52 -83 61 -83 6 0 8 -3 4 -6 -6 -6 34 -84 72
-144 14 -20 14 -23 1 -15 -13 8 -13 7 -1 -8 7 -9 10 -17 5 -17 -5 0 -3 -4 5
-9 7 -5 14 -17 15 -27 2 -11 8 -31 14 -47 11 -26 21 -62 26 -97 1 -8 7 -25 14
-37 11 -20 3 -31 -28 -37 -3 -1 -11 -5 -19 -10 -10 -7 -12 -6 -6 3 6 10 3 11
-12 2 -11 -6 -23 -7 -27 -4 -3 3 -6 2 -6 -3 0 -5 -20 -9 -45 -8 -25 0 -45 -3
-45 -8 0 -5 -6 -6 -12 -1 -17 10 -29 11 -54 2 -13 -4 -26 -3 -33 4 -6 6 -11 7
-11 3 0 -5 -6 -3 -14 3 -9 8 -16 8 -20 2 -4 -6 -17 -4 -35 5 -15 8 -40 15 -55
16 -14 1 -26 6 -26 11 0 5 -6 7 -14 4 -8 -3 -16 -2 -18 4 -2 5 -13 11 -24 13
-17 4 -21 0 -17 -15 3 -10 9 -19 14 -19 5 0 9 -9 9 -20 0 -11 4 -20 8 -20 4 0
8 -9 9 -20 1 -11 9 -28 18 -37 17 -16 35 -54 41 -83 2 -8 10 -20 18 -26 9 -6
16 -16 16 -21 0 -5 9 -20 20 -33 11 -12 17 -27 14 -31 -3 -5 0 -9 5 -9 6 0 11
-4 11 -10 0 -5 7 -18 15 -27 8 -10 14 -20 13 -23 -2 -3 9 -19 24 -35 16 -16
28 -33 28 -38 0 -4 9 -17 20 -29 11 -12 20 -28 20 -35 0 -8 4 -11 10 -8 5 3
10 -1 10 -9 0 -9 5 -16 10 -16 6 0 10 -4 10 -10 0 -10 16 -31 58 -74 12 -13
22 -27 22 -31 0 -4 14 -21 30 -37 17 -15 30 -32 30 -36 0 -4 14 -18 30 -31 17
-13 30 -29 30 -37 0 -13 12 -18 33 -15 4 0 7 -3 7 -8 0 -6 11 -22 25 -37 14
-15 25 -24 25 -21 0 3 15 -9 33 -27 17 -17 47 -42 66 -56 19 -14 40 -31 47
-37 7 -7 17 -13 22 -13 6 0 12 -3 14 -7 5 -12 66 -53 78 -53 5 0 10 -5 10 -11
0 -5 4 -8 9 -5 5 3 11 -1 15 -9 3 -8 12 -15 21 -15 8 0 15 -6 15 -12 0 -9 4
-8 10 2 5 8 10 10 10 4 0 -11 35 -28 53 -25 4 1 7 -4 7 -10 0 -5 4 -7 10 -4 5
3 10 1 10 -6 0 -7 3 -9 7 -6 3 4 16 1 29 -7 12 -8 32 -16 45 -18 13 -2 30 -7
37 -11 7 -5 12 -3 12 5 0 10 3 9 10 -2 5 -8 12 -11 16 -8 4 4 15 3 25 -3 14
-7 19 -6 19 3 0 8 3 9 8 3 4 -6 31 -11 59 -10 29 0 53 -4 53 -9 0 -5 6 -3 14
3 10 8 16 9 21 1 3 -6 12 -7 18 -3 6 4 23 8 37 9 73 4 106 9 110 16 3 4 22 8
42 10 20 1 34 6 32 10 -3 4 4 8 15 8 12 0 21 4 21 9 0 6 9 8 20 6 11 -2 20 1
20 6 0 6 4 8 9 4 6 -3 14 3 20 12 5 10 12 17 15 16 16 -7 26 -2 20 10 -4 6 -4
9 0 5 10 -9 86 31 86 45 0 6 3 8 6 4 6 -6 35 16 88 68 17 16 33 29 36 28 3 0
11 5 18 13 7 8 10 14 7 14 -3 0 15 20 41 45 25 25 42 45 39 45 -3 0 8 15 24
33 17 17 31 35 31 39 0 4 6 13 13 20 23 26 107 172 107 187 0 6 5 11 12 11 6
0 9 3 5 6 -3 3 7 27 22 52 36 63 102 235 116 305 2 9 7 23 12 30 4 6 8 20 9
30 1 9 2 18 4 20 1 1 3 9 5 18 1 9 6 27 11 40 4 13 7 32 5 42 -1 9 2 17 7 17
6 0 9 7 8 16 -1 9 3 44 9 78 10 51 11 147 4 329 0 9 -4 17 -9 17 -5 0 -7 9 -5
20 2 11 0 20 -5 20 -5 0 -7 9 -5 20 2 11 1 20 -3 20 -4 0 -8 9 -9 20 -2 24
-42 109 -61 128 -7 8 -10 17 -7 21 2 5 -5 17 -15 29 -11 12 -20 24 -20 27 0 7
-15 26 -47 61 -12 13 -20 24 -17 24 3 0 -19 23 -48 52 -29 28 -52 55 -51 60 2
4 -8 10 -22 14 -14 3 -23 10 -20 14 3 5 -3 11 -12 14 -10 3 -29 16 -43 29 -34
31 -131 93 -142 90 -4 -2 -8 2 -8 7 0 6 -9 10 -21 10 -11 0 -17 5 -14 10 4 6
-5 10 -20 10 -14 0 -24 4 -21 8 2 4 -10 14 -27 21 -18 7 -44 19 -60 27 -15 8
-31 13 -36 10 -5 -4 -11 -2 -13 3 -1 6 -14 12 -28 14 -14 2 -32 7 -40 10 -13
5 -114 35 -145 43 -24 6 -62 15 -90 20 -16 3 -33 10 -37 17 -5 8 -8 8 -8 1 0
-6 -7 -11 -15 -11 -8 0 -15 3 -15 6 0 3 -19 7 -43 8 -37 2 -82 9 -82 13 0 2
-210 11 -313 13 -56 1 -102 -1 -102 -4z"/>
</g>
</svg>
